<svg xmlns="http://www.w3.org/2000/svg" xmlns:svgjs="http://svgjs.com/svgjs" xmlns:xlink="http://www.w3.org/1999/xlink" width="288" height="288"><svg xmlns="http://www.w3.org/2000/svg" width="288" height="288" viewBox="0 0 48 48"><g class="color000 svgShape" data-name="Graph Bar"><path fill="#4154f1" d="M20 10h8v20h-8zM32 4h8v26h-8zM16 30H8V16h8z" class="color42a5f5 svgShape"/><path fill="#424242" d="M47 40H26.82A3 3 0 0 0 25 38.18V34h17a1 1 0 0 0 0-2H6a1 1 0 0 0 0 2h17v4.18A3 3 0 0 0 21.18 40H1a1 1 0 0 0 0 2h20.18a3 3 0 0 0 5.64 0H47a1 1 0 0 0 0-2Z" class="color424242 svgShape"/></g></svg></svg>