<svg xmlns="http://www.w3.org/2000/svg" xmlns:svgjs="http://svgjs.com/svgjs" xmlns:xlink="http://www.w3.org/1999/xlink" width="288" height="288"><svg xmlns="http://www.w3.org/2000/svg" width="288" height="288" viewBox="0 0 512 512"><path fill="#000000" d="M124.877 253.645h262.246c40.645 0 73.712-33.067 73.712-73.713 0-31.358-20.026-59.223-49.319-69.538-7.932-49.61-50.671-86.39-101.508-86.39a102.7 102.7 0 0 0-30.031 4.457C259.275 10.072 232.837.001 204.993.001c-62.319 0-113.02 50.7-113.02 113.02 0 .328.001.658.005.991-24.97 12.477-40.813 37.775-40.813 65.92 0 40.645 33.067 73.713 73.712 73.713zm-21.694-127.16a8 8 0 0 0 4.955-7.858 99.448 99.448 0 0 1-.165-5.606c0-53.497 43.523-97.02 97.02-97.02 25.307 0 49.261 9.691 67.451 27.289a7.994 7.994 0 0 0 8.262 1.781c9.38-3.362 19.239-5.067 29.302-5.067 44.428 0 81.531 33.26 86.304 77.364a8 8 0 0 0 5.854 6.859c25.123 6.834 42.669 29.74 42.669 55.704 0 31.823-25.89 57.713-57.712 57.713H124.877c-31.822 0-57.712-25.89-57.712-57.713 0-23.507 14.138-44.486 36.018-53.446zm28.475-13.464c0-40.438 32.898-73.336 73.335-73.336a8 8 0 0 1 0 16c-31.615 0-57.335 25.721-57.335 57.336a8 8 0 0 1-16 0zm301.581 239.055v-24.287H264v24.287a8 8 0 0 1-16 0v-24.287H78.76v24.287a8 8 0 0 1-16 0v-32.287a8 8 0 0 1 8-8H248v-22.45a8 8 0 0 1 16 0v22.45h177.239a8 8 0 0 1 8 8v32.287a8 8 0 0 1-16 0zm59.61 66.784h-43.847l-12.008-20.767c-3.737-6.464-10.426-10.323-17.893-10.323h-32.637c-10.56 0-19.151 8.591-19.151 19.151v85.927c0 10.56 8.591 19.15 19.151 19.15h106.384c10.56 0 19.151-8.591 19.151-19.15V438.01c.001-10.559-8.59-19.15-19.15-19.15zm-106.384-15.089h32.637c1.787 0 3.146.784 4.041 2.332l7.377 12.758h-47.205v-11.938a3.154 3.154 0 0 1 3.15-3.152zM496 492.849a3.154 3.154 0 0 1-3.151 3.15H386.465a3.154 3.154 0 0 1-3.151-3.15V434.86h109.535c1.708 0 3.151 1.442 3.151 3.15v54.839zM309.192 418.86h-43.847l-12.008-20.769c-3.737-6.463-10.426-10.321-17.892-10.321h-32.637c-10.56 0-19.151 8.591-19.151 19.15v85.928c0 10.56 8.591 19.15 19.151 19.15h106.384c10.56 0 19.151-8.591 19.151-19.15V438.01c0-10.559-8.592-19.15-19.151-19.15zm-106.384-15.089h32.637c1.787 0 3.147.784 4.041 2.33l7.377 12.76h-47.206v-11.939a3.155 3.155 0 0 1 3.151-3.151zm109.535 89.078a3.154 3.154 0 0 1-3.151 3.15H202.808a3.154 3.154 0 0 1-3.151-3.15V434.86h109.535a3.154 3.154 0 0 1 3.151 3.15v54.839zM125.534 418.86H81.688L69.68 398.092c-3.737-6.463-10.426-10.321-17.892-10.321H19.151c-10.56 0-19.151 8.59-19.151 19.15v85.928c0 10.56 8.591 19.15 19.151 19.15h106.383c10.56 0 19.151-8.591 19.151-19.15v-54.838c.001-10.56-8.591-19.151-19.151-19.151zM19.151 403.771h32.637c1.787 0 3.147.784 4.041 2.33l7.377 12.76H16v-11.939a3.155 3.155 0 0 1 3.151-3.151zm109.535 89.078a3.154 3.154 0 0 1-3.151 3.15H19.151a3.154 3.154 0 0 1-3.151-3.15V434.86h109.534a3.154 3.154 0 0 1 3.151 3.15v54.839z" class="color000 svgShape"/></svg></svg>