<svg xmlns="http://www.w3.org/2000/svg" xmlns:svgjs="http://svgjs.com/svgjs" xmlns:xlink="http://www.w3.org/1999/xlink" width="288" height="288"><svg xmlns="http://www.w3.org/2000/svg" width="288" height="288" data-name="Layer 1" viewBox="0 0 64 64"><path fill="#4154f1" d="M16 10H15a1 1 0 0 0-1 1v4a1 1 0 0 0 1 1h1zM20 23V19a1 1 0 0 0-1-1H18v6h1A1 1 0 0 0 20 23z" class="color000 svgShape"/><path fill="#4154f1" d="M17,32A15,15,0,1,0,2,17,15,15,0,0,0,17,32ZM12,21a1,1,0,0,1,2,0v2a1,1,0,0,0,1,1h1V18H15a3,3,0,0,1-3-3V11a3,3,0,0,1,3-3h1V7a1,1,0,0,1,2,0V8h1a3,3,0,0,1,3,3v2a1,1,0,0,1-2,0V11a1,1,0,0,0-1-1H18v6h1a3,3,0,0,1,3,3v4a3,3,0,0,1-3,3H18v1a1,1,0,0,1-2,0V26H15a3,3,0,0,1-3-3Z" class="color000 svgShape"/><polygon fill="#4154f1" points="62 18 54 10 54 15 34 15 34 21 54 21 54 26 62 18" class="color000 svgShape"/><polygon fill="#4154f1" points="2 46 10 54 10 49 30 49 30 43 10 43 10 38 2 46" class="color000 svgShape"/><path fill="#4154f1" d="M43.944 53.694l5.422-12.543A6.911 6.911 0 0 0 48 41c-.084 0-.166.01-.25.013L42.74 52.6A7.008 7.008 0 0 0 43.944 53.694zM45.349 41.525A6.97 6.97 0 0 0 41.47 50.5z" class="color000 svgShape"/><path fill="#4154f1" d="M47,62A15,15,0,1,0,32,47,15,15,0,0,0,47,62Zm-.626-22.845,1.139-2.635A1,1,0,0,1,48.826,36h0a1,1,0,0,1,.52,1.313L48.6,39.04a8.958,8.958,0,0,1,1.572.239l.511-1.181A1,1,0,0,1,52,37.578h0a1,1,0,0,1,.521,1.313l-.474,1.095a9.084,9.084,0,0,1,3.117,2.572,1.006,1.006,0,0,1-.3,1.477.986.986,0,0,1-1.278-.248,7.061,7.061,0,0,0-2.333-1.967l-5.53,12.792A6.937,6.937,0,0,0,48,55a7.007,7.007,0,0,0,5.658-2.879.989.989,0,0,1,1.28-.28h0a1,1,0,0,1,.332,1.46A8.957,8.957,0,0,1,44.932,56.45l-.446,1.03a1,1,0,0,1-1.313.52h0a1,1,0,0,1-.52-1.313l.487-1.125a9.06,9.06,0,0,1-1.253-.977l-.57,1.317A1,1,0,0,1,40,56.422h0a1,1,0,0,1-.521-1.313l.966-2.235a8.979,8.979,0,0,1,5.93-13.718Z" class="color000 svgShape"/></svg></svg>