<svg xmlns="http://www.w3.org/2000/svg" xmlns:svgjs="http://svgjs.com/svgjs" xmlns:xlink="http://www.w3.org/1999/xlink" width="288" height="288"><svg xmlns="http://www.w3.org/2000/svg" width="288" height="288" viewBox="0 0 32 32"><path fill="#4154f1" d="M6.762 0A6.748 6.748 0 0 0 0 6.764v18.474A6.746 6.746 0 0 0 6.762 32h18.476A6.746 6.746 0 0 0 32 25.238V6.764A6.748 6.748 0 0 0 25.238 0H6.762zM15 8h2a.5.5 0 0 1 .5.5v1.781a6.06 6.06 0 0 1 1.5.625l1.25-1.281a.477.477 0 0 1 .688 0l1.437 1.438a.477.477 0 0 1 0 .687L21.094 13c.273.468.486.976.625 1.5H23.5a.5.5 0 0 1 .5.5v2a.5.5 0 0 1-.5.5h-1.781c-.023.085-.063.25-.063.25l-.906-.281s.127-.4.156-.563a.505.505 0 0 1 .5-.406H23v-1h-1.594a.507.507 0 0 1-.5-.406 4.903 4.903 0 0 0-.781-1.906.525.525 0 0 1 .063-.657l1.125-1.125-.72-.719-1.124 1.126a.485.485 0 0 1-.625.06 5.034 5.034 0 0 0-1.938-.781.505.505 0 0 1-.406-.5V8.998h-1v1.594c0 .24-.17.456-.406.5a5.04 5.04 0 0 0-1.938.781.485.485 0 0 1-.625-.06l-1.125-1.126-.719.72 1.126 1.124c.17.17.198.427.062.625a5.035 5.035 0 0 0-.781 1.938.507.507 0 0 1-.5.406H9v1h1.594c.24 0 .455.17.5.406.128.69.383 1.36.781 1.938a.485.485 0 0 1-.063.625l-1.124 1.125.718.718 1.125-1.125a.484.484 0 0 1 .625-.062 5.036 5.036 0 0 0 1.938.781c.237.044.405.26.406.5V23h1v-1.594c0-.24.17-.456.406-.5.379-.07 1.094-.343 1.094-.343v1s-.354.117-.5.156V23.5a.5.5 0 0 1-.5.5h-2a.5.5 0 0 1-.5-.5v-1.781a5.956 5.956 0 0 1-1.5-.594l-1.25 1.25a.477.477 0 0 1-.688 0l-1.437-1.438a.477.477 0 0 1 0-.687L10.906 19a6.064 6.064 0 0 1-.625-1.5H8.5A.5.5 0 0 1 8 17v-2a.5.5 0 0 1 .5-.5h1.781a5.966 5.966 0 0 1 .594-1.5l-1.25-1.25a.477.477 0 0 1 0-.688l1.438-1.437a.477.477 0 0 1 .687 0L13 10.906a6.07 6.07 0 0 1 1.5-.625V8.5A.5.5 0 0 1 15 8zm1 4c2.203 0 4 1.797 4 4 0 2.203-1.797 4-4 4-2.203 0-4-1.797-4-4 0-2.203 1.797-4 4-4zm0 1c-1.663 0-3 1.337-3 3s1.337 3 3 3 3-1.337 3-3-1.337-3-3-3zm4.5 5.5h1V20H23v1h-1.5v1.5h-1V21H19v-1h1.5v-1.5z" class="color000 svgShape"/></svg></svg>