<svg xmlns="http://www.w3.org/2000/svg" xmlns:svgjs="http://svgjs.com/svgjs" xmlns:xlink="http://www.w3.org/1999/xlink" width="288" height="288"><svg xmlns="http://www.w3.org/2000/svg" width="288" height="288" viewBox="0 0 1024 1024"><path fill="none" stroke="#4154f1" stroke-linejoin="round" stroke-miterlimit="10" stroke-width="30" d="m346.91 787.61-53.81 37.1a20.317 20.317 0 0 1-25.92-2.35l-63.03-63.03c-6.94-6.94-7.93-17.86-2.37-25.94l37.1-53.77c4.31-6.27 4.74-14.43 1.18-21.15-9-16.95-16.46-34.87-22.19-53.51a20.342 20.342 0 0 0-15.77-14.09l-64.24-11.8c-9.65-1.77-16.67-10.19-16.67-20.01v-89.14c0-9.82 7.02-18.24 16.67-20.01l64.22-11.8c7.47-1.36 13.53-6.81 15.77-14.07 5.73-18.66 13.2-36.58 22.21-53.55 3.56-6.74 3.14-14.88-1.19-21.15l-37.09-53.75c-5.56-8.08-4.57-18.98 2.37-25.92l63.03-63.03c6.94-6.94 17.84-7.93 25.92-2.37l53.75 37.07c6.27 4.33 14.41 4.76 21.13 1.19 16.98-9.01 34.9-16.48 53.57-22.21 7.26-2.24 12.71-8.31 14.07-15.77l11.8-64.21c1.77-9.65 10.19-16.67 20.01-16.67h89.14c9.82 0 18.24 7.02 20.01 16.67l11.8 64.21c1.38 7.47 6.81 13.53 14.09 15.77 18.66 5.73 36.58 13.2 53.55 22.21 6.72 3.56 14.88 3.14 21.13-1.19l53.75-37.07c8.08-5.56 19-4.57 25.94 2.37l63.03 63.03a20.317 20.317 0 0 1 2.35 25.92l-37.07 53.77c-4.33 6.27-4.76 14.41-1.19 21.13 9 16.97 16.46 34.88 22.19 53.55 2.24 7.26 8.31 12.71 15.77 14.07l64.22 11.8c9.67 1.77 16.67 10.19 16.67 20.01v89.14c0 9.82-7 18.24-16.67 20.01l-64.24 11.81c-7.48 1.36-13.55 6.81-15.77 14.07a305.772 305.772 0 0 1-22.19 53.51c-3.56 6.72-3.14 14.88 1.19 21.15l37.09 53.77c5.58 8.08 4.59 19-2.35 25.94l-63.03 63.03c-6.94 6.94-17.86 7.93-25.94 2.35l-53.79-37.1" class="colorStroke000 svgStroke"/><path fill="none" stroke="#4154f1" stroke-linejoin="round" stroke-miterlimit="10" stroke-width="30" d="m421.63 512.27 64.22 64.22 116.52-116.52" class="colorStroke000 svgStroke"/><path fill="none" stroke="#4154f1" stroke-linejoin="round" stroke-miterlimit="10" stroke-width="30" d="M699.55 511.26c-.69 54.83-24.91 104-63.04 137.86-24.41 21.68-38.63 52.59-38.63 85.24v24.25H426.12v-24.07c0-32.73-14.23-63.73-38.69-85.47-38.65-34.36-63-84.45-63-140.23 0-103.45 83.75-187.34 187.14-187.57 104.36-.22 189.3 85.65 187.98 189.99zM597.88 758.61v60.06c0 15.42-12.5 27.92-27.92 27.92H454.04c-15.42 0-27.92-12.5-27.92-27.92v-60.06h171.76zM474.39 885l-13.01-38.41h101.26L549.61 885a22.55 22.55 0 0 1-21.36 15.31h-32.51A22.52 22.52 0 0 1 474.39 885z" class="colorStroke000 svgStroke"/></svg></svg>