<svg xmlns="http://www.w3.org/2000/svg" xmlns:svgjs="http://svgjs.com/svgjs" xmlns:xlink="http://www.w3.org/1999/xlink" width="288" height="288"><svg xmlns="http://www.w3.org/2000/svg" width="288" height="288" viewBox="0 0 100 100"><path fill="#4154f1" d="M54.51 85.268a4.285 4.285 0 0 1-7.996-2.143 4.285 4.285 0 0 1 7.996-2.143h19.86a15.26 15.26 0 0 0 3.961-.521 31.997 31.997 0 0 0 4.555-14.737 8.536 8.536 0 0 0 3.06-1.46 4.256 4.256 0 0 1-.86-2.568v-8.143l-2.144 1.714v-6.429l-19.285-21-45 21v6.429l-4.286-3.429v-.095a8.537 8.537 0 0 0-2.143 5.667 8.574 8.574 0 0 0 6.484 8.314c.973 16.903 14.935 30.257 32.087 30.257a32.048 32.048 0 0 0 23.984-10.72c-.138.003-.275.005-.413.005H54.51zm11.289-32.143a4.285 4.285 0 1 1 .001 8.571 4.285 4.285 0 0 1-.001-8.571zm-30 8.572a4.286 4.286 0 1 1 0-8.572 4.286 4.286 0 0 1 0 8.572zm53.571 4.285c0 6.982-4.639 12.765-11.039 14.479-.66.988-2.369 3.471-3.548 4.801a19.201 19.201 0 0 0 18.873-19.28v-.58a4.245 4.245 0 0 1-2.144.58H89.37z" class="color231F20 svgShape"/><path fill="#4154f1" d="M55.085 10.268c16.5 0 30 13.5 30 30v12.857a4.298 4.298 0 0 1 4.285-4.286v-8.571c0-18.857-15.429-34.286-34.285-34.286h-15c-1.286 0-2.144.857-2.144 2.143 0 .904.425 1.595 1.124 1.926.295.14.638.217 1.02.217h15z" class="color231F20 svgShape"/><path fill="#4154f1" d="M91.513 48.839H89.37a4.298 4.298 0 0 0-4.285 4.286V61.696c0 .961.32 1.852.86 2.568a4.286 4.286 0 0 0 3.425 1.717h2.143c.78 0 1.512-.212 2.144-.58a4.294 4.294 0 0 0 2.143-3.706v-8.571a4.3 4.3 0 0 0-4.287-4.285z" class="color231F20 svgShape"/></svg></svg>